<svg xmlns="http://www.w3.org/2000/svg" width="512" height="512" viewBox="0 0 502 502" enable-background="new 0 0 502 502"><path fill="#fff" d="M251 502c-45.78 0-88.94-17.95-121.53-50.54-32.6-32.6-50.54-75.75-50.54-121.53V172.07c0-45.78 17.95-88.94 50.54-121.53C162.07 17.94 205.22 0 251 0s88.94 17.95 121.53 50.54c32.6 32.6 50.54 75.75 50.54 121.53v157.86c0 45.78-17.95 88.94-50.54 121.53C339.93 484.06 296.78 502 251 502zm0-482C167.15 20 98.93 88.22 98.93 172.07v157.86C98.93 413.78 167.15 482 251 482s152.07-68.22 152.07-152.07V172.07C403.07 88.22 334.85 20 251 20z"/><g fill="#fff"><path d="M132.35 328.35c-5.52 0-10-4.47-10-10v-13.68c0-5.52 4.48-10 10-10s10 4.48 10 10v13.68c0 5.53-4.48 10-10 10zM252.2 457.8c-58.88 0-110.5-39.83-125.58-96.86-1.4-5.34 1.77-10.8 7.1-12.22 5.35-1.4 10.83 1.77 12.24 7.1C158.7 404.1 202.4 437.8 252.2 437.8c5.5 0 10 4.48 10 10s-4.5 10-10 10z"/></g><path fill="#fff" d="M251 41.04c-17.7 0-32.1 14.4-32.1 32.1v53.05c0 14.2 9.28 26.27 22.1 30.48v34.75c0 5.53 4.48 10 10 10s10-4.47 10-10v-34.75c12.82-4.2 22.1-16.3 22.1-30.5V73.15c0-17.7-14.4-32.1-32.1-32.1zm12.1 85.14c0 6.68-5.43 12.1-12.1 12.1s-12.1-5.42-12.1-12.1V73.15c0-6.67 5.43-12.1 12.1-12.1s12.1 5.43 12.1 12.1v53.05z"/></svg>